# xmcd
#
# Track frame offsets:
#	150
#	20527
#	41482
#	58639
#	74982
#	98735
#	125855
#	146815
#	165725
#	187155
#	209485
#	231667
#
# Disc length: 3338 seconds
#
# Revision: 0
# Processed by: cddbd v1.5.2PL0 Copyright (c) Steve Scherf et al.
# Submitted via: audiograbber 1.83.01
#
DISCID=c60d080c
DTITLE=Laura Pausini - Las cosas que vives
DYEAR=1996
DGENRE=Pop
TTITLE0=Las cosas que vives
TTITLE1=Escucha a tu corazón
TTITLE2=Inolvidable
TTITLE3=Cuando se ama
TTITLE4=Angeles en el cielo
TTITLE5=Lo siento
TTITLE6=Dos enamorados
TTITLE7=Qué historia es ?
TTITLE8=16/5/74
TTITLE9=Un dia sin ti
TTITLE10=La voz
TTITLE11=El mundo que soñé
EXTD=
EXTT0=
EXTT1=
EXTT2=
EXTT3=
EXTT4=
EXTT5=
EXTT6=
EXTT7=
EXTT8=
EXTT9=
EXTT10=
EXTT11=
PLAYORDER=
